<svg width="160" height="42" viewBox="0 0 160 42" xmlns="http://www.w3.org/2000/svg" xmlns:xlink="http://www.w3.org/1999/xlink"><title>logo_googleassistant</title><defs><path id="a" d="M10.92.13H0v11.2h10.92V.14z"/><path id="c" d="M49.82 34.54h45.5v-14.3h-45.5z"/></defs><g transform="translate(1 1)" fill="none" fill-rule="evenodd"><path d="M146.04 0H11.01L9.8.02C8.94.04 8.06.09 7.2.24c-.88.15-1.69.4-2.48.8a8.37 8.37 0 0 0-3.65 3.52C.67 5.32.4 6.1.25 6.96.1 7.77.05 8.62.02 9.46L0 10.63V29.2c0 .4 0 .77.02 1.16.02.85.08 1.69.23 2.52a8.09 8.09 0 0 0 4.47 5.91c.8.4 1.6.65 2.48.8.86.15 1.74.2 2.61.22a63.77 63.77 0 0 0 2.63.02H147.46l1.2-.02c.88-.02 1.75-.07 2.6-.22.88-.15 1.7-.4 2.5-.8a8.1 8.1 0 0 0 4.46-5.9c.16-.84.2-1.68.24-2.53V29.2l.01-1.38V12.01v-1.38l-.01-1.16c-.03-.84-.08-1.69-.24-2.52a8.14 8.14 0 0 0-6.95-6.71c-.86-.15-1.73-.2-2.6-.22L147.45 0h-1.42" stroke="#BABCBE" stroke-width="1.02"/><g transform="translate(5.93 5.93)" fill="#BABCBE"><circle cx="8.72" cy="8.72" r="8.72"/><circle cx="23.55" cy="13.09" r="4.36"/><circle cx="23.53" cy="24.43" r="5.23"/><circle cx="30.1" cy="7.44" r="2.18"/></g><path d="M52.18 17.85h.92l1.9-5.53 1.88 5.53h.91l2.47-7.06h-1.09l-1.84 5.62-1.9-5.65h-.87l-1.88 5.65-1.85-5.62h-1.1l2.45 7.06zm11.74.1a3.6 3.6 0 0 1-3.63-3.62v-.03a3.63 3.63 0 0 1 3.66-3.66 3.6 3.6 0 0 1 3.65 3.63v.03a3.64 3.64 0 0 1-3.68 3.66zm.03-.93c1.52 0 2.58-1.22 2.58-2.7v-.02c0-1.5-1.13-2.74-2.6-2.74-1.53 0-2.57 1.23-2.57 2.71v.03c0 1.5 1.11 2.72 2.59 2.72zm4.6.78h1.04V15c0-2.11 1.25-3.21 2.78-3.21h.08v-1.13c-1.32-.05-2.34.8-2.86 1.96v-1.83h-1.04v7zm4.56 0V7.9h1.04v6.83l3.79-3.94h1.3l-2.95 3 3.04 4h-1.25l-2.5-3.26-1.43 1.44v1.83h-1.04zm9.1.13c-1 0-2.12-.4-2.9-1.03l.53-.74c.76.57 1.6.9 2.42.9.85 0 1.46-.44 1.46-1.12v-.03c0-.7-.83-.97-1.75-1.23-1.1-.31-2.32-.7-2.32-1.98v-.03c0-1.2 1-2 2.38-2 .86 0 1.8.3 2.53.77l-.48.78a3.96 3.96 0 0 0-2.07-.67c-.83 0-1.36.43-1.36 1.01v.03c0 .66.87.92 1.8 1.2 1.09.33 2.26.75 2.26 2.01v.03c0 1.33-1.1 2.1-2.5 2.1zm8.5-.08h.92l1.9-5.53 1.88 5.53h.9l2.48-7.06H97.7l-1.84 5.62-1.9-5.65h-.87l-1.88 5.65-1.85-5.62h-1.1l2.45 7.06zm8.9-8.6h1.2V8.1h-1.2v1.15zm.07 8.55h1.05v-7.01h-1.05v7zm4.89.12c.5 0 .9-.11 1.26-.3v-.9a2.2 2.2 0 0 1-1.02.25c-.7 0-1.18-.31-1.18-1.17v-4.1h2.23v-.91h-2.23V8.67h-1.04v2.12h-.98v.92h.98v4.23c0 1.42.85 1.98 1.98 1.98zm2.2-.12h1.04v-4.02c0-1.31.9-2.2 2.1-2.2 1.24 0 1.94.82 1.94 2.12v4.1h1.05v-4.36c0-1.66-1-2.8-2.69-2.8-1.2 0-1.94.6-2.4 1.37V7.9h-1.04v9.9zm12.9.12c.5 0 .9-.11 1.26-.3v-.9a2.2 2.2 0 0 1-1.01.25c-.71 0-1.18-.31-1.18-1.17v-4.1h2.22v-.91h-2.22V8.67h-1.05v2.12h-.97v.92h.97v4.23c0 1.42.86 1.98 1.98 1.98zm2.2-.12h1.05v-4.02c0-1.31.89-2.2 2.1-2.2 1.23 0 1.94.82 1.94 2.12v4.1H128v-4.36c0-1.66-.99-2.8-2.68-2.8-1.21 0-1.94.6-2.4 1.37V7.9h-1.05v9.9zm10.49.16c-1.93 0-3.5-1.48-3.5-3.65v-.03c0-2.02 1.42-3.64 3.36-3.64 2.07 0 3.27 1.65 3.27 3.7 0 .13 0 .22-.02.34h-5.55c.14 1.52 1.22 2.37 2.46 2.37.97 0 1.64-.4 2.21-.99l.65.58a3.62 3.62 0 0 1-2.88 1.32zm-2.44-4.05h4.51c-.1-1.28-.84-2.4-2.24-2.4-1.22 0-2.14 1.03-2.27 2.4zM97.99 31.36l4.32-9.56h1l4.33 9.56h-1.15l-1.11-2.51h-5.17l-1.13 2.5h-1.1zm2.64-3.49h4.33l-2.16-4.83-2.17 4.83zm10.1 3.62c1.39 0 2.49-.77 2.49-2.1v-.03c0-1.26-1.17-1.68-2.25-2-.94-.29-1.8-.55-1.8-1.21v-.03c0-.58.52-1.01 1.35-1.01.68 0 1.42.25 2.07.67l.48-.78a4.8 4.8 0 0 0-2.52-.78c-1.39 0-2.4.8-2.4 2.01v.03c0 1.29 1.23 1.67 2.33 1.98.92.25 1.75.53 1.75 1.23v.03c0 .68-.61 1.11-1.45 1.11a4.1 4.1 0 0 1-2.43-.9l-.53.75c.79.64 1.9 1.03 2.9 1.03zm5.68 0c1.4 0 2.5-.77 2.5-2.1v-.03c0-1.26-1.17-1.68-2.26-2-.93-.29-1.8-.55-1.8-1.21v-.03c0-.58.53-1.01 1.35-1.01.68 0 1.43.25 2.08.67l.47-.78a4.8 4.8 0 0 0-2.52-.78c-1.38 0-2.39.8-2.39 2.01v.03c0 1.29 1.22 1.67 2.32 1.98.92.25 1.75.53 1.75 1.23v.03c0 .68-.6 1.11-1.45 1.11a4.1 4.1 0 0 1-2.43-.9l-.52.75c.78.64 1.9 1.03 2.9 1.03zm3.53-8.68h1.19v-1.15h-1.2v1.15zm.06 8.55h1.05v-7.01H120v7zm4.86.13c1.4 0 2.5-.77 2.5-2.1v-.03c0-1.26-1.17-1.68-2.25-2-.94-.29-1.8-.55-1.8-1.21v-.03c0-.58.52-1.01 1.35-1.01.68 0 1.42.25 2.07.67l.48-.78a4.8 4.8 0 0 0-2.53-.78c-1.38 0-2.38.8-2.38 2.01v.03c0 1.29 1.22 1.67 2.32 1.98.92.25 1.75.53 1.75 1.23v.03c0 .68-.61 1.11-1.45 1.11a4.1 4.1 0 0 1-2.43-.9l-.53.75c.79.64 1.9 1.03 2.9 1.03zm5.71-.01c.5 0 .9-.11 1.26-.3v-.9a2.2 2.2 0 0 1-1.01.25c-.7 0-1.18-.31-1.18-1.17v-4.1h2.22v-.91h-2.22v-2.12h-1.05v2.12h-.97v.92h.97v4.23c0 1.42.86 1.98 1.98 1.98zm4.3.03c-1.31 0-2.63-.75-2.63-2.19v-.03c0-1.47 1.22-2.26 3-2.26.9 0 1.53.12 2.16.3v-.25c0-1.26-.78-1.9-2.1-1.9-.82 0-1.47.21-2.12.5l-.31-.85a5.79 5.79 0 0 1 2.55-.58c.99 0 1.75.26 2.26.77.48.48.72 1.16.72 2.05v4.29h-1V30.3c-.5.64-1.3 1.2-2.54 1.2zm.2-.83c1.28 0 2.34-.79 2.34-1.9v-.68c-.52-.15-1.2-.3-2.06-.3-1.32 0-2.05.57-2.05 1.45v.03c0 .88.82 1.4 1.76 1.4zm4.62.68h1.05v-4.02c0-1.31.9-2.2 2.1-2.2 1.23 0 1.94.82 1.94 2.12v4.1h1.04V27c0-1.66-.99-2.8-2.68-2.8-1.21 0-1.94.6-2.4 1.37v-1.22h-1.05v7zm9.77.12c.5 0 .9-.11 1.26-.3v-.9a2.2 2.2 0 0 1-1.02.25c-.7 0-1.18-.31-1.18-1.17v-4.1h2.23v-.91h-2.23v-2.12h-1.04v2.12h-.98v.92h.98v4.23c0 1.42.85 1.98 1.98 1.98z" fill="#BABCBE"/><g transform="translate(49.82 20.23)"><mask id="b" fill="#fff"><use xlink:href="#a"/></mask><path d="M5.68 5.23v1.53h3.66c-.11.86-.4 1.49-.83 1.93a3.75 3.75 0 0 1-2.83 1.12 4.02 4.02 0 0 1-4.01-4.07 4.02 4.02 0 0 1 6.77-2.97l1.08-1.08A5.29 5.29 0 0 0 5.68.13 5.68 5.68 0 0 0 0 5.73c0 3.1 2.6 5.6 5.68 5.6 1.67 0 2.93-.54 3.91-1.56 1-1.01 1.33-2.44 1.33-3.58 0-.36-.03-.69-.08-.96H5.68z" fill="#BABCBE" mask="url(#b)"/></g><path d="M65.36 29.8c-1.1 0-2.05-.9-2.05-2.19 0-1.3.95-2.19 2.05-2.19 1.1 0 2.04.89 2.04 2.2 0 1.28-.95 2.18-2.04 2.18m0-5.8c-2 0-3.63 1.51-3.63 3.61a3.57 3.57 0 0 0 3.63 3.62c2 0 3.62-1.53 3.62-3.62 0-2.1-1.63-3.62-3.62-3.62M81.54 29.8c-1.1 0-1.93-.93-1.93-2.19 0-1.28.83-2.19 1.93-2.19 1.08 0 1.93.93 1.93 2.2s-.85 2.18-1.93 2.18zm1.82-5h-.05a2.5 2.5 0 0 0-1.9-.8c-1.81 0-3.39 1.57-3.39 3.61 0 2.03 1.58 3.62 3.38 3.62.87 0 1.55-.39 1.9-.82h.06v.5c0 1.38-.74 2.12-1.93 2.12-.97 0-1.57-.7-1.82-1.29l-1.38.58c.4.95 1.45 2.13 3.2 2.13 1.86 0 3.44-1.1 3.44-3.76v-6.5h-1.5v.61zM73.5 29.8c-1.1 0-2.04-.9-2.04-2.19 0-1.3.95-2.19 2.04-2.19 1.1 0 2.04.89 2.04 2.2 0 1.28-.94 2.18-2.04 2.18m0-5.8c-2 0-3.63 1.51-3.63 3.61a3.57 3.57 0 0 0 3.63 3.62c2 0 3.63-1.53 3.63-3.62 0-2.1-1.63-3.62-3.63-3.62" fill="#BABCBE"/><mask id="d" fill="#fff"><use xlink:href="#c"/></mask><path fill="#BABCBE" mask="url(#d)" d="M86.17 31.17h1.56V20.23h-1.56zM92.15 25.35c.64 0 1.19.33 1.37.8l-3.27 1.35c0-1.52 1.08-2.15 1.9-2.15m.1 4.45c-.8 0-1.37-.37-1.75-1.1l4.84-2-.16-.4c-.3-.81-1.22-2.3-3.1-2.3-1.86 0-3.4 1.46-3.4 3.61a3.54 3.54 0 0 0 3.58 3.62 3.6 3.6 0 0 0 3.01-1.6l-1.23-.82c-.41.6-.97 1-1.78 1"/></g></svg>