<svg width="148" height="41" viewBox="0 0 148 41" xmlns="http://www.w3.org/2000/svg"><title>logo_samsungsmartthings</title><g fill="none" fill-rule="evenodd"><path d="M127.34 40.146H20.96c-10.828 0-19.688-8.85-19.688-19.666C1.272 9.663 10.132.813 20.96.813h106.38c10.83 0 19.69 8.85 19.69 19.667 0 10.817-8.86 19.666-19.69 19.666z" stroke="#BABCBE"/><path d="M24.178 32.592c-6.46.885-12.438-3.646-13.324-10.1-.886-6.454 3.65-12.424 10.11-13.308 1.583-.217 3.16-.117 4.69.295.338.09.67.197.998.318.836.308 1.264 1.235.955 2.07-.308.836-1.236 1.264-2.073.955-.237-.088-.478-.164-.724-.23-1.11-.3-2.255-.372-3.406-.214-4.698.642-7.996 4.982-7.352 9.674.644 4.693 4.99 7.986 9.687 7.343 4.696-.643 7.995-4.983 7.35-9.675-.085-.627-.24-1.243-.457-1.83-.31-.833.116-1.76.952-2.07.834-.31 1.765.115 2.075.95.3.807.51 1.65.63 2.51.885 6.455-3.652 12.425-10.112 13.31M47.36 20.02l-.714.714c-.858-.508-1.526-.667-2.64-.667-1.588 0-2.255.635-2.255 1.92 0 3.24 6.088.97 6.088 5.35 0 2.08-1.78 2.922-3.8 2.922-1.46 0-2.67-.318-3.702-1.097l.716-.714c.92.65 1.795.793 2.987.793 1.59 0 2.622-.634 2.622-1.905 0-3.285-6.07-1-6.07-5.35 0-2.095 1.397-2.936 3.415-2.936 1.384 0 2.37.348 3.354.968zM56.485 23.353c.572-.968 1.653-1.603 3.13-1.603 2.115 0 3.306 1.016 3.306 3.46v4.89h-1.175v-4.73c0-1.89-.73-2.62-2.288-2.62-1.558 0-2.606.73-2.606 2.62v4.73h-1.175v-4.73c0-1.89-.732-2.62-2.29-2.62-1.557 0-2.606.73-2.606 2.62v4.73h-1.177v-8.19h.937l.24 1.157c.444-.778 1.445-1.317 2.764-1.317 1.463 0 2.4.493 2.94 1.603M68.28 26.052c-1.733 0-2.384.46-2.384 1.604 0 1.142.65 1.603 2.383 1.603 1.54 0 3.004-.732 3.02-3.208h-3.02zm-3.56 1.604c0-1.825 1.286-2.62 3.4-2.62h3.18c0-2.11-1.336-2.286-2.623-2.286-1.144 0-1.987.16-2.86.556l-.637-.635c.97-.634 2.05-.92 3.497-.92 2.034 0 3.703.54 3.703 3.62v4.73h-.906l-.175-1.413c-.636 1.033-1.86 1.572-3.18 1.572-2.114 0-3.4-.795-3.4-2.604zM78.437 22.972c-1.558 0-2.607.572-2.607 2.46V30.1h-1.176v-8.19h.92l.256 1.22c.444-.777 1.27-1.317 2.607-1.317v1.16zM83.713 30.068c-.38.127-.795.19-1.208.19-.54 0-1.048-.11-1.398-.3-.7-.38-1.065-1.223-1.065-2.7V22.91h-.97v-1h.97l.158-1.906h1.002v1.905h2.018v1h-2.018v4.317c0 .953.127 1.54.525 1.81.222.16.572.27 1.017.27.286 0 .62-.048.97-.175v.936zM87.02 30.1V19.91H84v-.7h6.85v.7h-3.004V30.1M99.703 25.18v4.92h-.794v-4.762c0-2.08-.813-2.89-2.544-2.89-1.717 0-2.877.97-2.877 3.048V30.1h-.795V19.21h.794v4.096c.412-.81 1.27-1.556 3.035-1.556 2.098 0 3.178 1 3.178 3.43M102.327 30.1h.795v-8.19h-.795v8.19zm0-9.874h.795V19.21h-.795v1.016zM112.912 25.18v4.92h-.794v-4.762c0-2.08-.81-2.89-2.543-2.89-1.716 0-2.877.81-2.877 2.89V30.1h-.794v-8.19h.57l.16 1.316c.556-.95 1.494-1.476 3.1-1.476 2.097 0 3.178 1 3.178 3.43M115.71 26.005c0 2.76 1.335 3.556 3.052 3.556 1.7 0 3.45-.794 3.45-3.555 0-2.747-1.75-3.54-3.45-3.54-1.717 0-3.05.793-3.05 3.54m6.547-2.54l.126-1.556h.635v6.906c0 3.236-1.97 4.253-4.258 4.253-1.398 0-2.527-.334-3.416-.938l.46-.46c.843.492 1.67.7 2.956.7 1.383 0 3.464-.462 3.464-3.844-.857 1.51-2.303 1.73-3.623 1.73-2.114 0-3.72-1.157-3.72-4.253 0-3.064 1.606-4.255 3.72-4.255 1.478 0 2.846.286 3.656 1.715M124.88 29.4l.48-.474c.905.46 1.73.634 2.78.634 1.32 0 2.32-.174 2.32-1.508 0-1.206-.762-1.587-2.304-1.682-1.844-.112-2.99-.715-2.99-2.334 0-1.747 1.354-2.286 2.975-2.286 1.097 0 2.098.206 2.924.762l-.46.477c-.636-.383-1.415-.542-2.463-.542-1.24 0-2.13.27-2.13 1.588 0 1.064.525 1.445 2.115 1.557 1.954.126 3.178.603 3.178 2.46 0 1.826-1.542 2.206-3.162 2.206-1.255 0-2.4-.303-3.26-.86M44.123 10.36l1.29 3.682c.094.267.18.533.267.8.05-.267.094-.526.15-.8l.824-3.68h.547l-1.123 4.94h-.692l-1.24-3.4c-.102-.266-.18-.677-.268-.943-.086.265-.165.676-.266.943l-1.24 3.4h-.692l-1.125-4.942h.548l.823 3.682c.058.274.1.533.15.8.088-.267.175-.533.27-.8l1.29-3.68h.49zM51.002 13.444c0-1.145-.692-1.477-1.4-1.477-.706 0-1.406.332-1.406 1.477s.7 1.476 1.407 1.476c.707 0 1.4-.33 1.4-1.476m-3.333 0c0-1.397.974-1.93 1.933-1.93.96 0 1.933.533 1.933 1.93 0 1.398-.974 1.93-1.933 1.93-.96 0-1.933-.532-1.933-1.93M54.032 12.068c-.707 0-1.182.26-1.182 1.117v2.117h-.534v-3.716h.418l.116.554c.2-.353.576-.597 1.182-.597v.525zM55.503 13.206l1.782-1.62h.706l-1.8 1.62 1.924 2.097h-.678l-1.933-2.097zm-.533 2.097h.533V10.36h-.533v4.943zM58.68 14.935l.304-.303c.396.21.765.288 1.226.288.533 0 .937-.064.937-.583 0-.482-.295-.62-.937-.655-.887-.05-1.4-.31-1.4-1.095 0-.82.657-1.074 1.4-1.074.512 0 1.003.13 1.385.404l-.303.302c-.274-.166-.635-.253-1.082-.253-.498 0-.858.1-.858.62 0 .41.216.554.858.605.887.064 1.478.288 1.478 1.145s-.735 1.037-1.478 1.037c-.62 0-1.125-.15-1.53-.44M67.548 11.586l.916 2.456c.1.267.202.533.267.8.03-.267.087-.526.152-.8l.57-2.456h.534l-.866 3.717h-.692l-.974-2.6c-.064-.18-.122-.368-.158-.548-.037.18-.094.367-.16.547l-.972 2.6h-.693l-.864-3.716h.534l.576 2.456c.065.274.123.533.152.8.065-.267.166-.533.266-.8l.91-2.456h.504zM70.82 15.302h.533v-3.716h-.533v3.716zm0-4.33h.533v-.582h-.534v.583zM74.395 15.288c-.173.058-.36.086-.547.086-.246 0-.477-.05-.635-.136-.317-.173-.483-.555-.483-1.225V12.04h-.44v-.454h.44l.072-.865h.454v.866h.916v.453h-.916V14c0 .43.058.697.238.82.1.072.26.122.462.122.13 0 .28-.022.44-.08v.426zM78.36 13.084v2.218h-.533v-2.146c0-.857-.332-1.19-1.04-1.19-.705 0-1.18.333-1.18 1.19v2.146h-.535v-4.94h.534v1.75c.202-.354.656-.6 1.255-.6.96 0 1.5.463 1.5 1.572" fill="#BABCBE"/><path fill="#BABCBE" d="M17.61 18.92l5.046 6.693 8.62-14.443h-.7L22.36 21.614l-3.626-2.694"/></g></svg>