<svg width="77" height="43" viewBox="0 0 77 43" xmlns="http://www.w3.org/2000/svg"><title>logo_IFTTT</title><g transform="translate(1 1)" fill-rule="nonzero" fill="none"><rect stroke="#BABCBE" width="74.576" height="40.678" rx="5"/><path fill="#BABCBE" d="M8.475 17.797h5.085V33.9H8.475zM32.398 17.797h-3.584v5.084h3.39V33.9h5.084V22.88h3.39v-5.083H37.72M45.992 17.797h-3.62v5.084h3.39V33.9h5.085V22.88h3.39v-5.083h-2.923M64.907 17.797h-8.974v5.084h3.39V33.9h5.084V22.88h3.39v-5.083M16.102 17.797v16.1h5.084V29.66h4.238v-5.084h-4.238V22.88h5.933v-5.083h-6.044M10.636 11.593l1.83-6.212h1.203l1.813 6.213 1.695-6.212h1.153l-2.228 7.798h-1.127l-1.9-6.27-1.897 6.27h-1.153L7.737 5.38h1.178M24.458 10.56c.005.38-.067.758-.212 1.11-.14.318-.342.606-.593.847-.258.25-.564.446-.9.576-.717.272-1.51.272-2.228 0-.332-.13-.635-.325-.89-.576-.25-.24-.452-.53-.593-.848-.144-.352-.216-.73-.21-1.11-.007-.38.065-.76.21-1.11.14-.32.342-.608.594-.848.255-.247.558-.44.89-.568.717-.273 1.51-.273 2.228 0 .334.128.64.32.9.568.25.24.453.528.592.847.145.35.218.73.212 1.11zm-1.077 0c0-.243-.04-.483-.117-.713-.074-.22-.19-.424-.34-.6-.15-.177-.34-.32-.55-.416-.476-.205-1.016-.205-1.492 0-.21.098-.398.24-.55.416-.15.177-.265.38-.338.6-.156.466-.156.97 0 1.434.08.214.197.412.347.584.15.178.338.32.55.416.476.205 1.015.205 1.49 0 .213-.097.4-.24.552-.416.15-.178.264-.382.34-.6.074-.228.11-.466.11-.705zM26.27 8.542v-.584h.984v.881c.16-.314.407-.573.712-.747.284-.187.618-.284.958-.28.137-.003.273.012.407.043l-.042.958c-.155-.037-.315-.054-.474-.05-.226-.008-.45.04-.653.134-.178.09-.334.216-.457.373-.123.16-.216.34-.27.535-.06.207-.088.42-.086.636v2.746H26.27V8.542zM31.712 10.23l2.186-2.272h1.39l-2.407 2.364 2.654 2.856h-1.432l-2.356-2.712v2.712h-1.068v-8.33h1.034M39.602 9.28c-.122-.195-.29-.355-.492-.466-.217-.12-.463-.183-.712-.178-.118-.013-.237-.013-.356 0-.11.022-.216.062-.313.118-.09.053-.165.126-.222.212-.058.094-.087.203-.084.314-.008.208.11.4.296.49.283.135.582.232.89.29.236.055.468.126.695.21.2.075.39.178.56.306.154.115.28.263.372.432.093.184.14.388.136.594.007.27-.054.54-.178.78-.113.208-.272.388-.466.525-.204.138-.43.235-.67.288-.254.058-.512.086-.772.085-.398 0-.793-.078-1.16-.23-.37-.147-.695-.39-.942-.703l.738-.627c.15.215.347.392.576.517.258.147.55.22.847.212.127.012.255.012.382 0 .115-.025.227-.068.33-.128.21-.12.335-.35.32-.593 0-.25-.16-.467-.397-.544-.325-.148-.666-.26-1.017-.33-.175-.045-.353-.1-.534-.16-.176-.062-.342-.15-.49-.264-.148-.11-.27-.253-.357-.415-.097-.188-.144-.4-.136-.61-.008-.25.05-.5.17-.72.11-.196.263-.364.448-.492.19-.133.402-.23.627-.288.238-.063.483-.094.73-.093.37 0 .74.074 1.083.22.34.122.636.343.848.635l-.754.61zM47.568 7.958l1.178 3.99L50 7.96h1.102l1.27 3.99 1.18-3.99h1.11l-1.696 5.22h-1.12L50.56 9.254l-1.28 3.924h-1.102l-1.737-5.22M57.068 6.076c.004.18-.07.354-.204.475-.13.124-.303.19-.483.187-.168-.005-.33-.075-.448-.195-.127-.12-.198-.29-.195-.466-.006-.18.065-.356.195-.483.128-.128.302-.2.483-.195.18-.002.355.07.483.195.122.13.184.306.17.483zm-.17 7.102h-1.025v-5.22h1.034l-.01 5.22zM61.432 8.805h-1.39v2.712c-.022.24.04.48.178.678.148.147.352.222.56.203.1.01.203.01.305 0 .102-.018.202-.05.296-.093v.848c-.134.045-.273.08-.414.1-.155.014-.31.014-.466 0-.416.03-.825-.118-1.127-.406-.285-.34-.425-.778-.39-1.22V8.805h-.966v-.847h1v-1.5h1.025v1.5h1.39v.847zM63.56 8.754c.143-.277.363-.507.635-.66.306-.188.658-.285 1.017-.28.29-.005.58.052.847.17.23.106.436.262.6.457.165.197.286.425.357.67.082.275.122.56.12.848v3.237H66.1v-2.907c0-.204-.017-.408-.05-.61-.03-.18-.09-.35-.18-.51-.086-.145-.208-.268-.355-.354-.182-.098-.387-.145-.593-.136-.393-.01-.768.162-1.017.466-.28.357-.42.802-.4 1.254v2.77h-1.04V4.85H63.5v3.898l.06.008z"/></g></svg>