<svg width="155" height="42" viewBox="0 0 155 42" xmlns="http://www.w3.org/2000/svg"><title>logo_applehomekit@3x</title><g fill="none" fill-rule="evenodd"><path d="M141.77 1.393H12.987c-.46 0-.915 0-1.376.003-.383.004-.766.01-1.154.016-.836.022-1.684.072-2.52.222-.84.148-1.623.4-2.39.79-.752.386-1.44.888-2.034 1.485-.602.594-1.1 1.285-1.482 2.04-.39.765-.64 1.552-.786 2.395-.15.833-.204 1.677-.225 2.52-.013.387-.014.773-.02 1.16v18.569c.006.39.007.77.02 1.16.02.844.073 1.687.224 2.52.147.844.395 1.633.786 2.396.382.753.88 1.443 1.482 2.034.595.602 1.282 1.102 2.034 1.483.767.394 1.55.644 2.39.796.836.15 1.684.2 2.52.223.388.007.77.012 1.155.012.462.003.917.003 1.377.003H141.77c.452 0 .912 0 1.363-.002.384 0 .775-.005 1.16-.012.842-.024 1.687-.073 2.513-.223.843-.152 1.627-.402 2.4-.796.75-.38 1.44-.88 2.032-1.483.6-.59 1.097-1.28 1.486-2.033.386-.762.636-1.55.78-2.394.153-.834.203-1.677.232-2.522.005-.39.005-.77.005-1.16.01-.456.01-.912.01-1.377V13.4c0-.46 0-.918-.01-1.375 0-.387 0-.773-.004-1.16-.03-.843-.08-1.687-.233-2.52-.143-.843-.393-1.63-.78-2.396-.388-.755-.886-1.446-1.485-2.04-.593-.598-1.282-1.1-2.033-1.486-.772-.39-1.556-.642-2.4-.79-.825-.15-1.67-.2-2.513-.222-.384-.006-.775-.012-1.16-.016-.45-.003-.91-.003-1.362-.003" stroke="#BABCBE" stroke-width="1.021"/><path d="M42.36 28.556h3.38l-1.667-4.912h-.047l-1.665 4.912zm3.82 1.396H41.92l-1.022 3.028H39.09l4.038-11.2h1.875l4.04 11.2h-1.838l-1.024-3.028zM56.258 28.897c0-1.653-.852-2.74-2.153-2.74-1.28 0-2.14 1.11-2.14 2.74 0 1.646.86 2.748 2.14 2.748 1.3 0 2.153-1.078 2.153-2.748m1.722 0c0 2.538-1.357 4.17-3.403 4.17-1.163 0-2.086-.523-2.566-1.43h-.038v4.043H50.3V24.816h1.618v1.357h.032c.464-.876 1.456-1.443 2.596-1.443 2.07 0 3.434 1.637 3.434 4.167M65.31 28.897c0-1.653-.854-2.74-2.156-2.74-1.28 0-2.14 1.11-2.14 2.74 0 1.646.86 2.748 2.14 2.748 1.302 0 2.155-1.078 2.155-2.748m1.72 0c0 2.538-1.357 4.17-3.404 4.17-1.163 0-2.084-.523-2.565-1.43h-.038v4.043h-1.674V24.816h1.62v1.357h.03c.466-.876 1.458-1.443 2.597-1.443 2.07 0 3.434 1.637 3.434 4.167M68.46 32.98h1.675v-11.2H68.46M73.54 28.145h4.076c-.04-1.25-.837-2.072-2-2.072-1.154 0-1.992.838-2.077 2.072zm5.657 2.437c-.226 1.482-1.666 2.498-3.51 2.498-2.373 0-3.846-1.59-3.846-4.145 0-2.56 1.482-4.22 3.776-4.22 2.255 0 3.674 1.552 3.674 4.028v.574h-5.76v.1c0 1.398.876 2.313 2.195 2.313.93 0 1.658-.442 1.882-1.148h1.59zM92.136 32.98v-4.96h-5.743v4.96h-1.737v-11.2h1.737v4.735h5.743V21.78h1.736v11.2M101.712 28.897c0-1.76-.806-2.8-2.162-2.8-1.357 0-2.16 1.047-2.16 2.8 0 1.77.803 2.803 2.16 2.803 1.356 0 2.162-1.033 2.162-2.803m-6.03 0c0-2.57 1.512-4.183 3.868-4.183 2.364 0 3.867 1.614 3.867 4.183 0 2.577-1.495 4.184-3.867 4.184-2.37 0-3.868-1.606-3.868-4.183M104.874 24.816h1.597v1.396h.04c.363-.923 1.247-1.49 2.317-1.49 1.132 0 1.953.582 2.278 1.6h.038c.42-.994 1.38-1.6 2.543-1.6 1.612 0 2.666 1.07 2.666 2.7v5.558h-1.68v-5.162c0-1.047-.567-1.653-1.56-1.653-.99 0-1.68.73-1.68 1.763v5.052h-1.644v-5.278c0-.94-.596-1.537-1.542-1.537-.992 0-1.698.77-1.698 1.824v4.99h-1.674v-8.164zM119.763 28.145h4.076c-.04-1.25-.837-2.072-2-2.072-1.156 0-1.993.838-2.077 2.072zm5.658 2.437c-.225 1.482-1.665 2.498-3.51 2.498-2.372 0-3.846-1.59-3.846-4.145 0-2.56 1.48-4.22 3.776-4.22 2.255 0 3.674 1.552 3.674 4.028v.574h-5.76v.1c0 1.398.876 2.313 2.194 2.313.932 0 1.66-.442 1.883-1.148h1.59zM127.394 32.98v-11.2h1.736v5.332h.07l4.672-5.332h2.062l-4.433 4.96 4.807 6.24h-2.155l-3.875-5.045-1.147 1.312v3.732M137.81 32.98h1.675v-8.164h-1.675v8.164zm-.13-10.314c0-.543.434-.962.967-.962.543 0 .977.42.977.962 0 .527-.434.954-.977.954-.533 0-.968-.427-.968-.954zM143.734 22.883v1.932h1.55v1.327h-1.55v4.502c0 .698.31 1.024.992 1.024.17 0 .442-.023.55-.04v1.32c-.186.047-.558.078-.93.078-1.65 0-2.293-.62-2.293-2.204v-4.68h-1.186v-1.327h1.186v-1.932h1.68zM42.617 16.65h-.887l-2.05-7.54h.98l1.498 6.128h.063l1.686-6.13h.95l1.685 6.13h.064l1.497-6.13h.982l-2.05 7.54h-.887l-1.732-5.95h-.063M53.858 13.832c0-1.337-.6-2.104-1.665-2.104s-1.664.767-1.664 2.104c0 1.334.598 2.107 1.663 2.107 1.064 0 1.665-.774 1.665-2.108m-4.26 0c0-1.812.993-2.914 2.595-2.914 1.602 0 2.594 1.102 2.594 2.914 0 1.81-.992 2.916-2.594 2.916-1.602 0-2.594-1.107-2.594-2.916M56.2 11.016h.856v.836h.083c.166-.55.814-.935 1.56-.935.145 0 .333.01.448.026v.9c-.073-.022-.396-.054-.574-.054-.855 0-1.476.575-1.476 1.37v3.49H56.2v-5.634zM63.748 11.016h1.1l-2.42 2.414 2.582 3.22h-1.14l-2.11-2.64-.538.502v2.137h-.898V8.78h.898v4.698h.084M67.838 10.917c1.178 0 1.998.586 2.12 1.51h-.89c-.12-.45-.557-.748-1.235-.748-.67 0-1.19.34-1.19.84 0 .388.312.628.975.79l.867.208c1.06.257 1.57.717 1.57 1.526 0 1.01-.976 1.705-2.253 1.705-1.253 0-2.114-.603-2.213-1.538h.922c.152.475.6.78 1.32.78.758 0 1.3-.363 1.3-.88 0-.386-.292-.647-.893-.793l-.965-.236c-1.055-.256-1.535-.712-1.535-1.526 0-.936.902-1.64 2.098-1.64M79.986 16.65h-.914l-1.257-4.358h-.083L76.48 16.65h-.908l-1.577-5.633h.91l1.104 4.504h.084l1.257-4.503h.862l1.257 4.504h.082l1.107-4.503h.9M82.788 16.648h.898v-5.632h-.898v5.632zm-.177-7.402c0-.346.283-.628.627-.628.345 0 .626.282.626.628 0 .344-.28.627-.626.627-.344 0-.626-.283-.626-.627zM86.673 9.56v1.457h1.252v.75h-1.252v3.19c0 .662.25.944.835.944.162 0 .25-.004.417-.02v.76c-.177.03-.35.05-.527.05-1.16 0-1.623-.427-1.623-1.504v-3.418h-.908v-.75h.908v-1.46h.898zM89.337 8.78h.897v3.125h.083c.282-.622.872-.987 1.733-.987 1.19 0 1.942.76 1.942 2.085v3.645h-.9v-3.426c0-1-.447-1.495-1.297-1.495-1.008 0-1.56.637-1.56 1.59v3.33h-.898V8.78z" fill="#BABCBE"/><path d="M26.4 8.197h-9.804c-.313 0-.627 0-.938.003-.264.005-.528.006-.79.014-.575.014-1.153.05-1.722.15-.575.104-1.11.273-1.634.54-.515.262-.984.604-1.394 1.013-.407.407-.75.88-1.012 1.395-.265.524-.434 1.06-.538 1.638-.1.566-.136 1.147-.15 1.722-.01.266-.01.527-.01.79-.005.315-.005.627-.005.938v9.82c0 .31 0 .624.004.938 0 .264.002.527.01.79.015.576.05 1.153.15 1.724.105.576.274 1.11.54 1.635.262.517.604.99 1.01 1.4.41.405.88.748 1.395 1.01.523.266 1.06.435 1.634.538.57.104 1.147.138 1.72.15.264.008.528.014.792.015.31.003.625.003.938.003H26.4c.313 0 .625 0 .938-.003.264 0 .528-.007.79-.014.573-.013 1.154-.047 1.72-.15.577-.104 1.112-.273 1.636-.54.515-.26.984-.604 1.395-1.01.405-.41.747-.882 1.007-1.4.267-.523.436-1.058.54-1.634.104-.57.135-1.148.152-1.725.005-.262.01-.525.01-.79V16.4v-.937c0-.264-.005-.525-.01-.79-.018-.576-.05-1.157-.153-1.723-.104-.578-.273-1.114-.54-1.638-.26-.516-.602-.988-1.008-1.395-.412-.41-.88-.75-1.396-1.012-.524-.268-1.06-.437-1.637-.54-.565-.1-1.146-.137-1.718-.15-.264-.01-.528-.01-.792-.015-.313-.003-.625-.003-.938-.003" stroke="#BABCBE"/><path d="M28.08 27.4c0 .42-.216.712-.655.712H15.56c-.44 0-.655-.292-.655-.713v-8.8c0-.512.224-.838.478-1.04.255-.2 5.563-4.323 5.712-4.44.148-.12.275-.17.4-.17.122 0 .252.05.402.17.148.117 5.45 4.24 5.706 4.44.255.202.477.528.477 1.04v8.8zm2.908-8.625l-2.116-1.685v-2.973c0-.22-.086-.284-.242-.284h-1.332c-.18 0-.29.036-.29.284v1.512l-5.057-4c-.195-.156-.316-.196-.454-.196s-.26.04-.455.195l-9.037 7.145c-.317.25-.227.61.125.61h1.677v9.104c0 .587.235.824.793.824h13.795c.56 0 .794-.237.794-.825v-9.105h1.676c.352 0 .44-.36.125-.61z" fill="#BABCBE"/><path d="M24.986 24.575c0 .307-.17.424-.403.424H18.41c-.235 0-.405-.118-.405-.425v-4.818c0-.215 0-.385.234-.574.152-.123 2.917-2.308 3-2.372.083-.066.163-.1.255-.1.087 0 .173.034.256.1l3.002 2.373c.234.19.234.36.234.574v4.818zm.813-5.98c-.14-.112-3.9-3.083-4-3.162-.1-.08-.208-.12-.305-.12s-.203.04-.304.12l-3.997 3.16c-.25.198-.33.4-.33.75v6.318c0 .36.203.53.502.53h8.26c.3 0 .503-.17.503-.53v-6.318c0-.35-.08-.55-.33-.748z" fill="#BABCBE"/><path d="M22.287 22.18c0 .09-.046.11-.108.11h-1.363c-.065 0-.11-.02-.11-.11v-1.276c0-.06.024-.122.077-.165.028-.024.62-.488.64-.504.023-.017.053-.027.073-.027.02 0 .05.01.072.026l.64.503c.052.042.077.104.077.164v1.276zm-.62-3.307c-.05-.04-.126-.064-.17-.064-.048 0-.123.022-.175.063-.05.04-1.51 1.16-1.576 1.214-.126.102-.186.25-.186.394v2.705c0 .218.11.267.26.267h3.352c.152 0 .26-.05.26-.267V20.48c0-.143-.06-.29-.185-.393-.068-.055-1.527-1.175-1.58-1.214z" fill="#BABCBE"/></g></svg>