<svg width="157" height="51" viewBox="0 0 157 51" xmlns="http://www.w3.org/2000/svg"><title>logo_amazonalexa</title><g fill="none" fill-rule="evenodd"><path d="M130.324 50.18v-9.123H10.374c-5.01 0-9.086-4.07-9.086-9.07V10.59c0-5.13 4.18-9.303 9.32-9.303h136.49c5.138 0 9.32 4.174 9.32 9.303v21.164c0 5.13-4.182 9.303-9.32 9.303h-7.634l-9.14 9.122z" stroke="#BABCBE"/><path d="M46.063 31.53c.47 0 .98-.095 1.524-.288.545-.19 1.096-.46 1.654-.806v-2.318c-.828-.222-1.634-.334-2.414-.334-1.735 0-2.6.67-2.6 2.003 0 .57.153 1.002.462 1.3.31.296.77.444 1.375.444m3.27.53l-.074-.844c-1.066.854-2.18 1.28-3.345 1.28-.855 0-1.533-.244-2.035-.734-.5-.487-.752-1.14-.752-1.956 0-.902.31-1.614.928-2.133.62-.52 1.462-.78 2.528-.78.83 0 1.715.142 2.657.428v-1.558c0-.754-.178-1.295-.538-1.623-.358-.328-.954-.493-1.783-.493-.894 0-1.842.16-2.844.48-.165.053-.335-.067-.335-.24v-.35c0-.1.062-.195.156-.234.43-.18.912-.325 1.443-.436.594-.123 1.176-.185 1.745-.185 1.09 0 1.9.23 2.426.688.527.456.79 1.15.79 2.077v6.59c0 .14-.115.255-.255.255h-.46c-.13 0-.24-.1-.252-.233M65.346 32.292c-.14 0-.255-.114-.255-.254v-6.09c0-.804-.14-1.388-.426-1.754-.285-.365-.737-.547-1.356-.547-1.178 0-2.3.39-3.364 1.17.037.296.055.586.055.87v6.35c0 .14-.115.255-.255.255h-.55c-.14 0-.255-.114-.255-.254v-6.09c0-.804-.142-1.388-.427-1.754-.284-.365-.737-.547-1.356-.547-1.152 0-2.255.378-3.308 1.132v7.258c0 .14-.116.254-.256.254h-.55c-.14 0-.254-.114-.254-.254v-8.822c0-.14.114-.255.254-.255h.446c.13 0 .24.1.254.228l.088.792c.555-.42 1.142-.74 1.755-.963.613-.224 1.21-.334 1.793-.334 1.164 0 1.945.476 2.342 1.428.582-.456 1.2-.808 1.858-1.056.655-.248 1.307-.37 1.95-.37.856 0 1.506.24 1.952.72.446.484.668 1.184.668 2.1v6.534c0 .14-.114.254-.254.254h-.55zM70.982 31.53c.47 0 .98-.095 1.524-.288.545-.19 1.096-.46 1.653-.806v-2.318c-.83-.222-1.636-.334-2.417-.334-1.734 0-2.6.67-2.6 2.003 0 .57.154 1.002.463 1.3.31.296.77.444 1.376.444m3.268.53l-.072-.844c-1.066.854-2.18 1.28-3.344 1.28-.856 0-1.534-.244-2.037-.734-.5-.487-.752-1.14-.752-1.956 0-.902.31-1.614.93-2.133.62-.52 1.462-.78 2.527-.78.83 0 1.715.142 2.657.428v-1.558c0-.754-.18-1.295-.54-1.623-.36-.328-.954-.493-1.783-.493-.892 0-1.84.16-2.842.48-.167.053-.335-.067-.335-.24v-.35c0-.1.058-.195.154-.234.43-.18.913-.325 1.444-.436.594-.123 1.176-.185 1.746-.185 1.09 0 1.9.23 2.424.688.528.456.79 1.15.79 2.077v6.59c0 .14-.114.255-.255.255h-.458c-.133 0-.242-.1-.255-.233M77.002 32.038v-.604c0-.057.02-.113.056-.158l5.815-7.388h-5.43c-.142 0-.254-.113-.254-.255v-.417c0-.14.11-.255.254-.255h6.365c.14 0 .254.115.254.256v.602c0 .057-.02.113-.054.16l-5.855 7.386h5.69c.142 0 .256.114.256.255v.418c0 .14-.113.254-.254.254h-6.588c-.142 0-.256-.114-.256-.254M89.563 31.606c2.145 0 3.215-1.33 3.215-3.99 0-2.645-1.07-3.97-3.215-3.97-2.142 0-3.214 1.325-3.214 3.97 0 2.66 1.07 3.99 3.213 3.99m0 .965c-1.363 0-2.42-.435-3.177-1.308-.756-.872-1.133-2.087-1.133-3.645 0-1.558.377-2.77 1.133-3.636.757-.865 1.814-1.298 3.177-1.298 1.364 0 2.423.433 3.18 1.3.754.866 1.133 2.077 1.133 3.635 0 1.558-.38 2.773-1.134 3.645-.756.873-1.815 1.31-3.18 1.31M102.807 32.292c-.14 0-.255-.114-.255-.254v-6.09c0-.804-.156-1.388-.464-1.754-.31-.365-.805-.547-1.487-.547-1.237 0-2.446.396-3.62 1.187v7.204c0 .14-.117.254-.256.254h-.55c-.142 0-.256-.114-.256-.254v-8.822c0-.14.114-.255.255-.255h.445c.13 0 .24.1.253.23l.09.847c.606-.433 1.245-.767 1.913-1.002.67-.235 1.32-.352 1.952-.352.904 0 1.595.238 2.072.715.475.476.714 1.177.714 2.105v6.535c0 .14-.113.254-.253.254h-.55zM112.94 31.53c.47 0 .98-.095 1.524-.288.545-.19 1.096-.46 1.654-.806v-2.318c-.83-.222-1.635-.334-2.417-.334-1.732 0-2.598.667-2.598 2.003 0 .57.152 1.002.463 1.3.31.296.767.444 1.375.444m3.27.54l-.074-.854c-1.065.854-2.18 1.28-3.345 1.28-.853 0-1.53-.244-2.033-.734-.5-.487-.752-1.14-.752-1.956 0-.903.31-1.614.928-2.133.62-.52 1.46-.78 2.528-.78.83 0 1.716.142 2.658.428v-1.558c0-.754-.18-1.295-.54-1.623-.357-.328-.953-.493-1.782-.493-.897 0-1.85.162-2.858.486-.158.05-.32-.064-.32-.23v-.373c0-.097.056-.187.147-.224.434-.18.92-.326 1.45-.437.596-.125 1.178-.188 1.747-.188 1.09 0 1.9.23 2.424.688.527.456.79 1.15.79 2.077v6.602c0 .133-.107.242-.242.242h-.483c-.124 0-.23-.097-.24-.222M122.193 32.026c0 .112-.076.213-.185.236-.258.057-.51.086-.76.086-.5 0-.885-.146-1.162-.436-.28-.29-.42-.695-.42-1.215v-11.89c0-.133.11-.243.244-.243h.572c.135 0 .244.11.244.244v11.87c0 .272.053.463.158.574.105.11.295.167.566.167.135 0 .294-.008.476-.026.142-.014.267.097.267.24v.392zM138.752 32.188l-2.808-4.013-2.753 4.01c-.044.067-.12.107-.198.107h-.588c-.2 0-.314-.224-.2-.386l3.2-4.474-2.905-4.087c-.113-.162 0-.384.198-.384h.647c.08 0 .155.04.2.104l2.49 3.55 2.493-3.55c.047-.065.12-.103.2-.103h.57c.197 0 .314.224.197.385l-2.883 4.012 3.205 4.55c.115.163 0 .385-.197.385h-.67c-.08 0-.153-.04-.198-.104M143.693 31.53c.47 0 .98-.095 1.522-.288.547-.19 1.096-.46 1.655-.806v-2.318c-.83-.222-1.635-.334-2.416-.334-1.734 0-2.6.667-2.6 2.003 0 .57.153 1.002.463 1.3.31.296.767.444 1.376.444m3.268.54l-.07-.854c-1.067.854-2.183 1.28-3.347 1.28-.854 0-1.533-.244-2.033-.734-.502-.487-.754-1.14-.754-1.956 0-.903.31-1.614.93-2.133.62-.52 1.46-.78 2.527-.78.83 0 1.715.142 2.657.428v-1.558c0-.754-.18-1.295-.54-1.623-.358-.328-.953-.493-1.782-.493-.897 0-1.85.162-2.858.486-.157.05-.32-.064-.32-.23v-.373c0-.097.056-.187.147-.224.434-.18.918-.326 1.45-.437.595-.125 1.178-.188 1.748-.188 1.088 0 1.9.23 2.424.688.525.456.79 1.15.79 2.077v6.602c0 .133-.11.242-.245.242h-.48c-.128 0-.23-.097-.244-.222M127.13 23.63c1.39 0 2.565.523 2.565 2.123 0 1.697-1.468 2.123-2.902 2.123-.913 0-2.166-.185-2.76-.282l-.005-.217c.123-2.438 1.168-3.748 3.103-3.748m-2.247 7.047c-.468-.518-.718-1.14-.81-2.278.625.147 1.905.42 2.814.42 1.83 0 3.83-.567 3.83-3.067 0-2.112-1.433-3.07-3.492-3.07-1.35 0-2.4.43-3.15 1.29-.75.86-1.125 2.068-1.125 3.624 0 1.647.372 2.886 1.116 3.72.743.835 1.85 1.253 3.326 1.253 1.125 0 2.107-.213 2.947-.638.118-.062.192-.188.192-.323v-.29c0-.17-.17-.29-.33-.227-.876.34-1.79.513-2.736.513-1.164 0-2.026-.31-2.583-.93M47.387 16.802l-.892-3.614-.883 3.614h-.93l-1.32-4.807h.848l.95 3.892.898-3.76h.903l.907 3.752.95-3.885h.847l-1.346 4.807M51.435 14.402c0 .592.124 1.042.368 1.35.245.307.602.46 1.07.46.467 0 .824-.153 1.07-.46.247-.308.37-.758.37-1.35 0-.592-.123-1.042-.37-1.35-.246-.307-.603-.46-1.07-.46-.468 0-.825.153-1.07.46-.244.308-.368.758-.368 1.35m-.86 0c0-.51.088-.953.27-1.332.18-.38.444-.672.79-.877.348-.205.762-.308 1.24-.308.46 0 .865.1 1.21.298.345.198.612.487.802.867.19.38.286.83.286 1.352 0 .51-.09.953-.27 1.332-.182.38-.445.672-.794.878-.348.205-.76.308-1.236.308-.465 0-.867-.1-1.213-.3-.344-.197-.61-.486-.802-.866-.19-.378-.284-.83-.284-1.352M57.508 14.242h.842c.54 0 .81-.265.81-.798 0-.53-.263-.797-.788-.797h-.864v1.595zm-.848 2.56v-4.807h1.8c.47 0 .85.128 1.135.386.285.256.428.603.428 1.038 0 .313-.08.584-.24.81-.16.227-.392.4-.7.522l1.245 2.053h-.847l-1.125-1.91h-.847v1.91h-.848zM61.537 16.802v-4.807h.847v2.116l1.884-2.115h.97L63.19 14.26l2.265 2.542H64.4l-2.016-2.29v2.29M67.482 14.59c-.384-.15-.662-.324-.836-.53-.173-.207-.26-.465-.26-.774 0-.43.152-.77.456-1.024.302-.25.71-.378 1.226-.378.426 0 .86.084 1.3.25v.674c-.444-.14-.847-.21-1.21-.21-.608 0-.91.207-.91.618 0 .157.054.287.165.39.108.1.303.202.582.304l.58.215c.385.144.663.316.834.52.17.203.255.462.255.777 0 .467-.163.834-.494 1.1-.327.265-.778.398-1.353.398-.245 0-.49-.025-.736-.073-.244-.05-.46-.117-.646-.205v-.672c.224.073.46.13.703.173.243.042.464.062.66.062.325 0 .573-.06.746-.176.174-.12.26-.29.26-.51 0-.158-.052-.288-.157-.39-.105-.1-.29-.203-.554-.305l-.61-.236zM77.074 16.802l-.893-3.614-.882 3.614h-.93l-1.32-4.807h.848l.95 3.892.898-3.76h.903l.907 3.752.95-3.885h.847l-1.345 4.807M80.607 16.803h.848v-4.808h-.848M84.214 16.802V12.69h-1.508v-.695h3.862v.695h-1.506v4.112M90.848 16.802v-2.108h-2.21v2.108h-.845v-4.807h.846v2.02h2.208v-2.02h.848v4.807M19.174 35.975v-3.022c0-1.074-.66-2.033-1.66-2.457-3.74-1.586-6.36-5.294-6.36-9.577 0-5.707 4.653-10.397 10.416-10.397 5.762 0 10.414 4.69 10.414 10.396 0 6.734-5.217 13.1-12.81 15.055M21.57 5.672c-8.45 0-15.273 6.88-15.273 15.247 0 8.368 6.822 15.246 15.273 15.246 8.45 0 15.272-6.878 15.272-15.247 0-8.37-6.822-15.248-15.272-15.248" fill="#BABCBE"/></g></svg>